{"title":"The Walking dead S03E10_home","uid":8165331,"size":1291474944,"categoryP":"video","categoryS":"tv_shows","magnet":"?xt=urn:btih:6a47f478c5c46d63bbee826fbdf96ffaf374cc17&amp;dn=The+Walking+dead+S03E10_home&amp;tr=udp%3A%2F%2Ftracker.openbittorrent.com%3A80&amp;tr=udp%3A%2F%2Fopen.demonii.com%3A1337&amp;tr=udp%3A%2F%2Ftracker.coppersurfer.tk%3A6969&amp;tr=udp%3A%2F%2Fexodus.desync.com%3A6969","seeders":1,"leechers":0,"uploader":"sekininsha","files":6,"time":1361322437,"description":"Video\nID                                       : 224 (0xE0)\nFormat                                   : MPEG Video\nFormat version                           : Version 2\nFormat profile                           : Main@Main\nFormat settings, BVOP                    : Yes\nFormat settings, Matrix                  : Custom\nFormat settings, GOP                     : Variable\nDuration                                 : 37mn 20s\nBit rate mode                            : Variable\nBit rate                                 : 3 598 Kbps\nMaximum bit rate                         : 8 000 Kbps\nWidth                                    : 720 pixels\nHeight                                   : 576 pixels\nDisplay aspect ratio                     : 4:3\nFrame rate                               : 25.000 fps\nStandard                                 : PAL\nColor space                              : YUV\nChroma subsampling                       : 4:2:0\nBit depth                                : 8 bits\nScan type                                : Progressive\nScan order                               : Top Field First\nCompression mode                         : Lossy\nBits/(Pixel*Frame)                       : 0.347\nStream size                              : 961 MiB (94%)\n\nAudio\nID                                       : 189 (0xBD)-128 (0x80)\nFormat                                   : AC-3\nFormat/Info                              : Audio Coding 3\nMode extension                           : CM (complete main)\nFormat settings, Endianness              : Big\nMuxing mode                              : DVD-Video\nDuration                                 : 37mn 20s\nBit rate mode                            : Constant\nBit rate                                 : 160 Kbps\nChannel(s)                               : 2 channels\nChannel positions                        : Front: L R\nSampling rate                            : 48.0 KHz\nBit depth                                : 16 bits\nCompression mode                         : Lossy\nStream size                              : 42.7 MiB (4%)","torrent":{"xt":"urn:btih:6a47f478c5c46d63bbee826fbdf96ffaf374cc17","amp;dn":"The+Walking+dead+S03E10_home","amp;tr":["udp%3A%2F%2Ftracker.openbittorrent.com%3A80","udp%3A%2F%2Fopen.demonii.com%3A1337","udp%3A%2F%2Ftracker.coppersurfer.tk%3A6969","udp%3A%2F%2Fexodus.desync.com%3A6969"],"infoHash":"6a47f478c5c46d63bbee826fbdf96ffaf374cc17","infoHashBuffer":{"type":"Buffer","data":[106,71,244,120,197,196,109,99,187,238,130,111,189,249,111,250,243,116,204,23]},"announce":[],"urlList":[]}}